<?xml version="1.0" encoding="utf-8"?>
<!-- Generator: Adobe Illustrator 27.0.1, SVG Export Plug-In . SVG Version: 6.00 Build 0)  -->
<svg version="1.1" id="Livello_1" xmlns="http://www.w3.org/2000/svg" xmlns:xlink="http://www.w3.org/1999/xlink" x="0px" y="0px"
	 viewBox="0 0 194.9 74.1" style="enable-background:new 0 0 194.9 74.1;" xml:space="preserve">
<style type="text/css">
	.st0{fill-rule:evenodd;clip-rule:evenodd;fill:#B7AB98;}
</style>
<path class="st0" d="M127,23.8c0.4,0,1,0.1,1-0.5c0-0.5-0.4-0.5-0.8-0.5h-0.8v1H127z M128.4,25.5H128l-0.8-1.3h-0.7v1.3h-0.4v-2.9
	h1.3c0.3,0,0.5,0,0.7,0.2c0.2,0.1,0.3,0.3,0.3,0.6c0,0.6-0.4,0.8-0.9,0.8L128.4,25.5L128.4,25.5z M129.3,24c0-1.2-1-2.2-2.3-2.3
	c-1.3,0-2.3,1-2.3,2.3s1.1,2.3,2.3,2.3C128.3,26.3,129.3,25.3,129.3,24z M124.5,24c0-1.4,1.1-2.6,2.6-2.6l0,0c1.4,0,2.6,1.2,2.6,2.6
	s-1.2,2.6-2.6,2.6C125.6,26.6,124.5,25.4,124.5,24z M192.2,23.8c0.4,0,1,0.1,1-0.5c0-0.5-0.4-0.5-0.8-0.5h-0.8v1H192.2z M193.5,25.5
	h-0.4l-0.9-1.3h-0.6v1.3h-0.3v-2.9h1.3c0.2,0,0.5,0,0.7,0.2c0.2,0.1,0.3,0.3,0.3,0.6c0,0.6-0.4,0.8-0.9,0.8L193.5,25.5L193.5,25.5z
	 M194.5,24c0-1.3-1-2.3-2.3-2.3c-1.2,0-2.2,1-2.3,2.2l0,0c0,1.3,1,2.3,2.3,2.3C193.5,26.3,194.5,25.3,194.5,24z M189.6,24
	c0-1.4,1.1-2.6,2.6-2.6c1.4,0,2.6,1.2,2.6,2.6s-1.2,2.6-2.6,2.6C190.7,26.6,189.6,25.4,189.6,24z M37.5,47.9c-3.8,0-6.8-3-6.9-6.8
	c0,0,0,0,0-0.1c0-3.8,3.1-6.8,6.8-6.8l0,0c3.8,0,6.8,3.1,6.8,6.8l0,0C44.3,44.8,41.3,47.9,37.5,47.9L37.5,47.9z M11.8,47.9
	C8,47.9,5,44.9,5,41c0-3.8,3-6.8,6.8-6.8s6.9,3.1,6.9,6.8C18.6,44.8,15.6,47.9,11.8,47.9L11.8,47.9L11.8,47.9z M98,47.9
	c-3.8,0-6.8-3-6.8-6.9c0-3.8,3-6.8,6.8-6.8s6.8,3.1,6.8,6.8C104.8,44.8,101.8,47.9,98,47.9L98,47.9z M72,47.9c-3.8,0-6.8-3-6.9-6.8
	V41c0-3.8,3-6.8,6.8-6.8l0,0c3.8,0,6.9,3.1,6.9,6.8l0,0C78.9,44.8,75.8,47.9,72,47.9L72,47.9z M44.4,50.4c-2,1.5-4.4,2.3-6.9,2.3
	c-6.4,0-11.7-5.2-11.7-11.7c0-6.4,5.2-11.6,11.7-11.6c2.6,0,4.9,0.8,6.8,2.3V22h5.1v30.5h-5L44.4,50.4L44.4,50.4z M125.8,36.8
	c-0.3-1.9-1.8-3.3-4.3-3.3c-1.3,0-4.1,0.4-4.1,2.1c0,2.5,4.2,2.7,5.3,2.8c6.8,0.6,8.7,3.6,8.7,7.1c0,2.6-1.3,4.5-3.2,5.9
	c-1.6,1.2-4.9,1.6-6.9,1.6c-4.4,0-8.9-2.4-9.5-7.9h5c0.3,2.6,3,3.6,4.5,3.6c2.8,0,4.8-1.2,4.8-2.6c0-2.2-2-2.7-5-3
	c-1.7-0.2-4.8-0.8-6.1-1.8c-1.5-1.2-2.7-2.5-2.7-4.7c0-4,3.2-7.2,9.4-7.3c5.2,0,9.1,3,9.2,7.5L125.8,36.8L125.8,36.8z M18.6,50.4
	c-2,1.5-4.4,2.3-6.9,2.3C5.3,52.7,0.1,47.5,0.1,41c0-6.4,5.2-11.6,11.6-11.6c2.6,0,4.9,0.8,6.9,2.3v-2.2h5v23.1h-5V50.4z M58.1,27.8
	V22h-5v5.8H58.1z M58.1,52.5V29.4h-5v23.1H58.1z M104.8,50.4c-1.9,1.4-4.3,2.3-6.8,2.3c-6.4,0-11.7-5.2-11.7-11.7
	c0-6.4,5.2-11.6,11.7-11.6c2.6,0,4.9,0.8,6.8,2.3v-2.2h5.1v23.1h-5L104.8,50.4L104.8,50.4z M78.9,50.4c-1.9,1.4-4.3,2.3-6.9,2.3
	c-6.4,0-11.7-5.2-11.7-11.7c0-6.4,5.3-11.6,11.7-11.6c2.6,0,4.9,0.8,6.9,2.3V22h5v30.5h-5V50.4z M170.4,38.4
	c0.3-5.5-1.3-11.5-5.7-17.3c-4.3,5.5-5.8,11.7-5.4,17.3H170.4z M159.9,42.7c-0.2-0.8-0.3-1.6-0.5-2.5h10.7c-0.1,0.8-0.3,1.7-0.5,2.5
	H159.9z M162.4,48.9c0.7,1.1,1.5,2.2,2.4,3.2c0.9-1,1.7-2.1,2.4-3.2H162.4L162.4,48.9z M187.1,38.4c1.3-2.6,2.1-5.5,2.5-8.8
	c-7.3,0.6-13,4.2-16.9,8.8H187.1z M186.1,40.3c-0.5,0.9-1,1.7-1.6,2.5l-14.6-0.1c0.5-0.8,0.9-1.7,1.5-2.4H186.1L186.1,40.3z
	 M180.4,47.1c0.9-0.7,1.8-1.6,2.6-2.4h-36.3c0.8,0.9,1.7,1.7,2.7,2.5L180.4,47.1L180.4,47.1z M167.7,48.9c-0.2,1-0.3,2.1-0.4,3.2
	c3.5-0.2,7.1-1.2,10.3-3.2H167.7z M143.4,40.3c0.5,0.9,1.1,1.7,1.7,2.5h14.5c-0.4-0.8-0.9-1.7-1.4-2.5H143.4L143.4,40.3z M152,48.9
	c3.3,1.9,6.8,3,10.3,3.2c0-1.1-0.2-2.1-0.3-3.2H152z M156.8,38.4c-3.8-4.6-9.5-8.1-16.8-8.8c0.4,3,1.2,6,2.5,8.8H156.8L156.8,38.4z"
	/>
</svg>
