<?xml version="1.0" encoding="utf-8"?>
<!-- Generator: Adobe Illustrator 27.0.1, SVG Export Plug-In . SVG Version: 6.00 Build 0)  -->
<svg version="1.1" xmlns="http://www.w3.org/2000/svg" xmlns:xlink="http://www.w3.org/1999/xlink" x="0px" y="0px"
	 viewBox="0 0 204 31.6" style="enable-background:new 0 0 204 31.6;" xml:space="preserve">
<style type="text/css">
	.st0{display:none;}
	.st1{display:inline;}
	.st2{fill:#3E90C5;}
	.st3{fill:#697CB7;}
	.st4{fill:#B45569;}
	.st5{fill:#865A90;}
	.st6{fill:#00BDD4;}
	.st7{fill:#7BCB79;}
	.st8{fill:#00B2BF;}
	.st9{fill:#CFD466;}
	.st10{fill:#FFCF42;}
	.st11{fill:#5DA7E5;}
	.st12{fill:#E86848;}
	.st13{fill:#FFAE3B;}
	.st14{fill:#FF993E;}
	.st15{fill:#444343;}
</style>
<g id="Full_colour_transparency" class="st0">
	<g class="st1">
		<rect x="185.8" y="-0.7" class="st2" width="11" height="33"/>
		<path class="st3" d="M63.6-0.7v33c9.1,0,16.5-7.4,16.5-16.5C80,6.7,72.7-0.7,63.6-0.7z"/>
		<rect x="52.6" y="-0.7" class="st2" width="11" height="33"/>
		<path class="st4" d="M92.4-0.7v33c9.1,0,16.5-7.4,16.5-16.5C108.9,6.7,101.5-0.7,92.4-0.7z"/>
		<rect x="81.4" y="-0.7" class="st5" width="11" height="33"/>
		<path class="st6" d="M49.8,18.5H22.4c0,7.6,6.1,13.7,13.7,13.7C43.7,32.3,49.8,26.1,49.8,18.5z"/>
		<rect x="154.2" y="-0.7" class="st7" width="11" height="33"/>
		
			<rect x="159.7" y="-6.2" transform="matrix(3.047169e-11 -1 1 3.047169e-11 160.3586 169.9564)" class="st8" width="11" height="22"/>
		<path class="st7" d="M10,32.3v-22c6.1,0,11,4.9,11,11C21,27.3,16.1,32.3,10,32.3z"/>
		<path class="st9" d="M10,17.2V-0.7c4.9,0,8.9,4,8.9,8.9C18.9,13.2,14.9,17.2,10,17.2z"/>
		<rect x="-1" y="-0.7" class="st10" width="11" height="33"/>
		<polygon class="st11" points="205,-0.7 191.2,24 177.5,-0.7 		"/>
		<rect x="140.4" y="13" class="st9" width="11" height="19.2"/>
		
			<rect x="157.6" y="9.6" transform="matrix(2.417894e-11 -1 1 2.417894e-11 144.5992 181.6561)" class="st6" width="11" height="17.9"/>
		<rect x="110.2" y="-0.7" class="st12" width="11" height="33"/>
		<rect x="126.7" y="-0.7" class="st13" width="11" height="33"/>
		<rect x="22.4" y="-0.7" class="st8" width="11" height="19.2"/>
		<rect x="38.8" y="-0.7" class="st11" width="11" height="19.2"/>
		<path class="st2" d="M63.6,10.3c3,0,5.5,2.5,5.5,5.5s-2.5,5.5-5.5,5.5V10.3z"/>
		<path class="st5" d="M92.4,10.3c3,0,5.5,2.5,5.5,5.5s-2.5,5.5-5.5,5.5V10.3z"/>
		
			<rect x="118.5" y="2.1" transform="matrix(3.775919e-11 -1 1 3.775919e-11 108.1878 139.7529)" class="st14" width="11" height="27.5"/>
		<circle class="st10" cx="145.9" cy="4.8" r="5.5"/>
	</g>
</g>
<g id="Full_colour_solid">
	<g>
		<g>
			<path class="st9" d="M18.5,8.2c0-4.3-3.3-7.9-7.5-8.2v9.6c2.5,0.1,4.7,1.1,6.6,2.5C18.2,11,18.5,9.6,18.5,8.2"/>
			<rect y="0" class="st10" width="9.6" height="31.6"/>
			<rect x="23.3" y="0" class="st8" width="9.6" height="17.8"/>
			<rect x="39.8" y="0" class="st11" width="9.6" height="17.8"/>
			<path class="st6" d="M36.4,31.6c7,0,12.7-5.5,13-12.4h-26C23.7,26.1,29.4,31.6,36.4,31.6z"/>
			<rect x="53.5" y="0" class="st2" width="9.6" height="31.6"/>
			<path class="st3" d="M64.5,0v9.6c3.1,0.3,5.5,3,5.5,6.1s-2.4,5.8-5.5,6.1v9.6c8.4-0.4,15.1-7.3,15.1-15.8S72.9,0.4,64.5,0z"/>
			<rect x="82.3" y="0" class="st5" width="9.6" height="31.6"/>
			<path class="st4" d="M93.3,0v9.6c3.1,0.3,5.5,3,5.5,6.1s-2.4,5.8-5.5,6.1v9.6c8.4-0.4,15.1-7.3,15.1-15.8S101.7,0.4,93.3,0z"/>
			<rect x="111.2" y="0" class="st12" width="9.6" height="31.6"/>
			<rect x="122.1" y="11" class="st14" width="4.1" height="9.6"/>
			<rect x="127.6" y="0" class="st13" width="9.6" height="31.6"/>
			<rect x="141.4" y="13.7" class="st9" width="9.6" height="17.8"/>
			<rect x="155.1" y="0" class="st7" width="9.6" height="31.6"/>
			<rect x="166.1" y="0" class="st8" width="9.6" height="9.6"/>
			<rect x="166.1" y="13.7" class="st6" width="5.5" height="9.6"/>
			<polygon class="st11" points="185.3,11.5 185.3,0 178.9,0 			"/>
			<polygon class="st3" points="197.6,0 197.6,11.5 204,0 			"/>
			<g>
				<polygon class="st2" points="186.6,16.8 186.6,20 186.6,31.6 196.3,31.6 196.3,20 196.3,16.8 196.3,0 186.6,0 				"/>
			</g>
			<path class="st7" d="M16.8,13.3C15.2,12,13.2,11.1,11,11v5.4C13.3,16.2,15.4,15.1,16.8,13.3z"/>
			<path class="st7" d="M11,17.8v13.7c5.4-0.4,9.6-4.8,9.6-10.3c0-2.7-1.1-5.2-2.8-7C16.2,16.3,13.7,17.6,11,17.8z"/>
		</g>
		<circle class="st10" cx="146.2" cy="4.8" r="4.8"/>
	</g>
</g>
</svg>
