<?xml version="1.0" encoding="utf-8"?>
<!-- Generator: Adobe Illustrator 27.0.1, SVG Export Plug-In . SVG Version: 6.00 Build 0)  -->
<svg version="1.1" id="layer" xmlns="http://www.w3.org/2000/svg" xmlns:xlink="http://www.w3.org/1999/xlink" x="0px" y="0px"
	 viewBox="0 0 194.9 74.1" style="enable-background:new 0 0 194.9 74.1;" xml:space="preserve">
<style type="text/css">
	.st0{fill:#B7AB98;}
</style>
<g>
	<path class="st0" d="M128.8,59.4c-2.8,0-5.5,0-8.3,0l-6-28.7h-0.1c-0.1,0.2-0.2,0.4-0.3,0.5c-2.7,5.8-5.5,11.6-8.2,17.3
		c-2.3,4.8-4.6,9.6-6.9,14.5c-0.2,0.5-0.5,1-1.1,1.2c-0.8,0.4-1.7,0-2.1-0.8c-0.2-0.4-0.4-0.8-0.5-1.2l-14.8-31
		c-0.1-0.2-0.2-0.4-0.4-0.5c-0.5,2.3-1,4.7-1.5,7.1c-0.5,2.4-1,4.9-1.5,7.2c-0.5,2.4-1,4.8-1.5,7.2c-0.5,2.4-1,4.8-1.5,7.2h-8.3
		c0-0.3,0.1-0.5,0.1-0.6c2.1-9.3,4.2-18.6,6.3-27.9c1.4-6.4,2.9-12.9,4.3-19.3c0-0.2,0.1-0.5,0.2-0.6c0.4-0.7,1.3-1.1,2-0.7
		c0.3,0.1,0.5,0.4,0.6,0.5c0.2,0.3,0.3,0.5,0.4,0.7L97,48.4c0.1,0.3,0.2,0.5,0.4,0.7c0.2-0.3,0.3-0.5,0.4-0.7l17.1-36.9
		c0.1-0.3,0.2-0.5,0.4-0.7c0.3-0.5,0.9-0.9,1.5-0.8c0.6,0.1,1.2,0.5,1.4,1.2c0.4,1.3,0.6,2.6,0.9,4c2.9,12.9,5.9,25.8,8.8,38.8
		c0.4,1.7,0.7,3.3,1.1,5C128.7,59,128.7,59.1,128.8,59.4z M62.9,51.8v7.6c-0.3,0-0.5,0-0.7,0c-13.4,0-26.7,0-40.1,0
		c-1.9,0-3.8-0.2-5.6-0.5c-3.3-0.5-6-3.2-6.4-6.5c-0.5-1.6-0.6-3.3-0.6-4.9c0-3.5,0-7.1,0-10.7c0-2.7,0-5.3,0-7.9
		c0-1.9,0.3-3.8,0.7-5.7c0.1-0.3,0.2-0.5,0.2-0.6c0.6-2.3,2.4-4,4.7-4.7c1.7-0.5,3.5-0.8,5.3-0.9c0.7,0,1.4,0,2.1,0h36.9l3.5,7.6
		H18.5c-0.2,0.7-0.1,26.7,0,27.3H62.9L62.9,51.8z M140.4,49.3v10.1c-2.8,0-5.5,0-8.4,0V41.8c1.5-0.1,3,0,4.4,0c1.4,0,2.9,0,4.4,0
		h35.5V24.6h-44.3c-0.1-0.1-0.1-0.1-0.1-0.1s0,0,0-0.1c0.1-0.2,0.1-0.4,0.2-0.5c1.1-2.3,2.1-4.6,3.2-7h0.7c12.2,0,24.5,0,36.7,0
		c2.1,0,4.1,0.2,6.1,0.6l0.3,0.1c3,0.6,5.2,3.1,5.8,6.1c0.4,1.7,0.5,3.6,0.5,5.3c0,3.2,0,6.4-0.1,9.6c-0.1,1.7-0.4,3.3-0.8,4.9
		c-0.6,2.3-2.4,4.1-4.7,4.7c-1.8,0.5-3.8,0.8-5.7,0.9c-0.6,0-1.4,0-2,0L140.4,49.3L140.4,49.3z"/>
	<path id="Path_151" class="st0" d="M97.3,40.4L86.6,10.2c0.2-0.1,0.3-0.1,0.5-0.1s0.3,0,0.5,0h19.8c0.3,0,0.5,0,0.9,0L97.5,40.4
		H97.3z"/>
</g>
</svg>
