<?xml version="1.0" encoding="utf-8"?>
<!-- Generator: Adobe Illustrator 27.0.1, SVG Export Plug-In . SVG Version: 6.00 Build 0)  -->
<svg version="1.1" id="Livello_1" xmlns="http://www.w3.org/2000/svg" xmlns:xlink="http://www.w3.org/1999/xlink" x="0px" y="0px"
	 viewBox="0 0 194.9 74.1" style="enable-background:new 0 0 194.9 74.1;" xml:space="preserve">
<style type="text/css">
	.st0{fill:#B7AB99;}
</style>
<path class="st0" d="M36.2,63.8h-2.8v0.9h1.8v1.1h-1.8v1.9h-1.7v-5h4.4V63.8z"/>
<path class="st0" d="M41,67.8c-1.6,0-2.9-1-2.9-2.6c0-1.7,1.3-2.5,2.9-2.5c1.6,0,2.8,1,2.8,2.5C43.8,66.7,42.6,67.8,41,67.8z
	 M41.9,64.5c0-0.4-0.4-0.9-0.9-0.9c-0.5,0-0.8,0.5-0.9,0.9c0,0.3-0.1,0.9,0,1.4c0.1,0.5,0.4,0.9,0.9,0.9c0.5,0,0.8-0.4,0.9-0.9
	C41.9,65.5,41.9,64.8,41.9,64.5z"/>
<path class="st0" d="M47.8,65.8v1.9h-1.7v-5h3.6c1.1,0,1.6,0.6,1.6,1.5c0,0.7-0.4,1.3-1,1.6l1,2h-1.8l-0.8-1.9H47.8z M47.8,64.7H49
	c0.3,0,0.5-0.2,0.5-0.5c0-0.3-0.2-0.5-0.5-0.5h-1.2V64.7z"/>
<path class="st0" d="M57.8,64.1c0,0.1,0.2,0.2,0.3,0.2c0.5,0.1,0.5,0.1,1.1,0.1c0.8,0.1,1.3,0.4,1.7,1.1c0.2,0.4,0.1,0.9-0.1,1.3
	c-0.5,0.8-1.6,0.9-2,0.9c-0.7,0-2.2,0-2.8-1.1l0.8-0.6c0.1,0.1,0.3,0.2,0.4,0.3c0.6,0.4,1.4,0.4,1.8,0.3c0.1,0,0.2-0.1,0.3-0.2
	c0.1-0.1,0-0.3-0.2-0.4c-0.3-0.1-0.6-0.1-1.3-0.3c-0.5-0.1-1.1-0.4-1.4-1c-0.2-0.4-0.2-0.9,0-1.3c0.3-0.6,1.2-0.8,1.6-0.9
	c0.9-0.1,2,0,2.9,0.9l-0.8,0.6c-0.6-0.4-1.4-0.5-1.9-0.3C57.9,63.9,57.8,64,57.8,64.1z"/>
<path class="st0" d="M65.7,66.5c0.7,0,1-0.2,1-0.7v-3.2H68v3.4c0,1.1-0.6,1.7-2.3,1.7h-0.3c-1.7,0-2.3-0.6-2.3-1.7v-3.4h1.7v3.2
	C64.8,66.3,65.1,66.5,65.7,66.5z"/>
<path class="st0" d="M75.5,66c-0.1,0.8-0.9,1.4-1.6,1.7c-0.2,0.1-0.7,0.1-1.1,0.1c-1.4,0-2.7-1.2-2.7-2.6c0-1.4,1.3-2.5,2.7-2.5
	c0.5,0,0.8,0.1,1.1,0.1c0.7,0.2,1.4,0.7,1.5,1.6L74,64.4c0-0.7-0.6-0.9-1-0.8c-0.6,0-1,0.5-1,1.5v0.1c0,1,0.4,1.5,1,1.5
	c0.6,0,1-0.1,1.2-1L75.5,66z"/>
<path class="st0" d="M82.9,66c-0.1,0.8-0.9,1.4-1.6,1.7c-0.2,0.1-0.7,0.1-1.1,0.1c-1.4,0-2.7-1.2-2.7-2.6c0-1.4,1.3-2.5,2.7-2.5
	c0.5,0,0.8,0.1,1.1,0.1c0.7,0.2,1.4,0.7,1.5,1.6l-1.4,0.1c0-0.7-0.6-0.9-1-0.8c-0.6,0-1,0.5-1,1.5v0.1c0,1,0.4,1.5,1,1.5
	c0.6,0,1-0.1,1.2-1L82.9,66z"/>
<path class="st0" d="M89.6,67.7h-4.6v-5h4.4v1.1h-2.8v0.9h1.8v1.1h-1.8v0.9h3V67.7z"/>
<path class="st0" d="M93.4,64.1c0,0.1,0.2,0.2,0.3,0.2c0.5,0.1,0.5,0.1,1.1,0.1c0.8,0.1,1.3,0.4,1.7,1.1c0.2,0.4,0.1,0.9-0.1,1.3
	c-0.5,0.8-1.6,0.9-2,0.9c-0.7,0-2.2,0-2.8-1.1l0.8-0.6c0.1,0.1,0.3,0.2,0.4,0.3c0.6,0.4,1.4,0.4,1.8,0.3c0.1,0,0.2-0.1,0.3-0.2
	c0.1-0.1,0-0.3-0.2-0.4c-0.3-0.1-0.6-0.1-1.3-0.3c-0.5-0.1-1.1-0.4-1.4-1c-0.2-0.4-0.2-0.9,0-1.3c0.3-0.6,1.2-0.8,1.6-0.9
	c0.9-0.1,2,0,2.9,0.9l-0.8,0.6c-0.6-0.4-1.4-0.5-1.9-0.3C93.5,63.9,93.4,64,93.4,64.1z"/>
<path class="st0" d="M100.3,64.1c0,0.1,0.2,0.2,0.3,0.2c0.5,0.1,0.5,0.1,1.1,0.1c0.8,0.1,1.3,0.4,1.7,1.1c0.2,0.4,0.1,0.9-0.1,1.3
	c-0.5,0.8-1.6,0.9-2,0.9c-0.6,0-2.2,0-2.8-1.1l0.8-0.6c0.1,0.1,0.3,0.2,0.4,0.3c0.6,0.4,1.4,0.4,1.8,0.3c0.1,0,0.2-0.1,0.3-0.2
	c0.1-0.1,0-0.3-0.2-0.4c-0.3-0.1-0.5-0.1-1.3-0.3c-0.5-0.1-1.1-0.4-1.4-1c-0.2-0.4-0.2-0.9,0-1.3c0.3-0.6,1.2-0.8,1.6-0.9
	c0.9-0.1,2,0,2.9,0.9l-0.8,0.6c-0.6-0.4-1.4-0.5-1.9-0.3C100.4,63.9,100.3,64,100.3,64.1z"/>
<path class="st0" d="M110,63.8h-2.8v0.9h1.8v1.1h-1.8v1.9h-1.7v-5h4.4V63.8z"/>
<path class="st0" d="M114.9,66.5c0.6,0,1-0.2,1-0.7v-3.2h1.3v3.4c0,1.1-0.6,1.7-2.3,1.7h-0.3c-1.7,0-2.3-0.6-2.3-1.7v-3.4h1.7v3.2
	C113.9,66.3,114.2,66.5,114.9,66.5z"/>
<path class="st0" d="M121,62.7v3.9h2.4v1.1h-4.1v-5H121z"/>
<path class="st0" d="M129.9,62.7v3.9h2.4v1.1h-4.1v-5H129.9z"/>
<path class="st0" d="M136.2,62.7v5h-1.7v-5H136.2z"/>
<path class="st0" d="M139.8,62.7l1.3,3.2l1.3-3.2h1.4l-2,5h-1.7l-2-5L139.8,62.7z"/>
<path class="st0" d="M147.5,62.7v5h-1.7v-5H147.5z"/>
<path class="st0" d="M153.5,65.4v-2.7h1.3v5h-1.4l-2.4-2.9v2.9h-1.3v-5h1.5L153.5,65.4z"/>
<path class="st0" d="M159.7,66v-1h2.6v2.6h-0.6l-0.4-0.5c-0.5,0.5-1.3,0.6-1.9,0.6c-1.4,0-2.5-1.2-2.5-2.7c0-1.4,1.2-2.5,2.7-2.5
	c0.4,0,0.8,0.1,1.1,0.1c0.8,0.2,1.4,0.7,1.6,1.6l-1.4,0.1c0-0.5-0.5-0.8-1-0.8c-0.6,0-1,0.3-1,1.1v1.1c0,0.7,0.5,1,1.1,1
	c0.4,0,0.9-0.4,0.9-0.7c0,0,0,0,0,0H159.7z"/>
<path class="st0" d="M157.2,10c0-1.4,1.1-2.5,2.5-2.5c1.4,0,2.5,1.1,2.5,2.5c0,1.4-1.1,2.5-2.5,2.5C158.4,12.5,157.2,11.4,157.2,10z
	 M157.7,10c0,1.1,0.9,2,2,2c1.1,0,2-0.9,2-2c0-1.1-0.9-2-2-2C158.6,8,157.7,8.9,157.7,10z M161,11.4h-0.5l-0.8-1.3h-0.5v1.3h-0.4
	V8.6h1.2c0.2,0,0.5,0,0.7,0.1c0.2,0.1,0.3,0.4,0.3,0.6c0,0.6-0.4,0.8-0.9,0.8L161,11.4z M159.7,9.7c0.4,0,0.9,0.1,0.9-0.4
	c0-0.4-0.3-0.4-0.7-0.4h-0.7v0.8H159.7z"/>
<path class="st0" d="M31.8,7.5h7.6c14.6,0,16,9.4,16,23.8c0,13.8-1.1,23.8-14.6,23.8h-9V7.5z M40.5,47.8c5.5-0.1,5.8-2.1,5.8-16.5
	c0-14.4-0.3-16.3-5.8-16.4V47.8z"/>
<path class="st0" d="M59.4,7.5h8.7v47.7h-8.7V7.5z"/>
<path class="st0" d="M72.8,7.5h19.7v7.4h-11V27h8.1v7.8h-8.1v13h11.4v7.4H72.8V7.5z"/>
<path class="st0" d="M102.2,41.3c0,2.7,0,7.4,3.7,7.4c2.9,0,3.9-2.7,3.9-4.6c0-8.5-15.8-10.4-15.8-24.6c0-7.2,3.9-13,11.2-13
	c7.8,0,10.8,6,11,14.5h-7.8c0-2.7,0-7.2-3.5-7.2c-2.1,0-3.3,1.7-3.3,4.4c0,8.1,15.8,10.8,15.8,24.7c0,7.3-4.2,13.1-12,13.1
	c-9.3,0-11.2-8.2-11.2-14.7H102.2z"/>
<path class="st0" d="M120.6,7.5h19.7v7.4h-11V27h8.1v7.8h-8.1v13h11.4v7.4h-20.1V7.5z"/>
<path class="st0" d="M144.6,7.5h8.7v40.3h9v7.4h-17.7V7.5z"/>
</svg>
