<?xml version="1.0" encoding="utf-8"?>
<!-- Generator: Adobe Illustrator 27.0.1, SVG Export Plug-In . SVG Version: 6.00 Build 0)  -->
<svg version="1.1" id="Livello_1" xmlns="http://www.w3.org/2000/svg" xmlns:xlink="http://www.w3.org/1999/xlink" x="0px" y="0px"
	 viewBox="0 0 56.7 56.7" style="enable-background:new 0 0 56.7 56.7;" xml:space="preserve">
<style type="text/css">
	.st0{fill:#0D0D0D;}
	.st1{fill:#B7AB99;}
</style>
<rect y="0" class="st0" width="56.7" height="56.7"/>
<path class="st1" d="M28.9,32.1c2.6,0,2.7,2.8,2.7,3.8h5.8c0-1.2-0.2-6-4.5-7.8c2.4-1.2,3.7-3.5,3.7-6.7c0-4-2-6-7.2-8
	c-3-1.1-3.9-1.8-3.9-3.4c0-1.4,0.8-2.3,2.3-2.3c2.7,0,2.7,2.5,2.8,3.4h5.5c0-3.3-1.6-7.7-8.1-7.7c-5.9,0-8.1,3.8-8.1,7.1
	c0,3.6,1.4,5.7,7.3,7.8c2.9,1.1,3.7,2,3.7,3.8c0,1.6-0.9,2.6-2.8,2.6c-2.4,0-3.2-1.9-3.2-3.6h-5.6c0,3.5,1.6,6.3,5,7.5
	c-3.4,2.1-4.6,6.6-4.6,11.5c0,7.4,1.8,13.1,8.9,13.1c8.2,0,8.7-6.8,8.7-8.8h-5.5c-0.1,1.4-0.3,4.1-3,4.1c-2.5,0-3.3-2.9-3.3-8.3
	C25.5,35,26.4,32.1,28.9,32.1z"/>
</svg>
