<?xml version="1.0" encoding="utf-8"?>
<!-- Generator: Adobe Illustrator 27.0.1, SVG Export Plug-In . SVG Version: 6.00 Build 0)  -->
<svg version="1.1" id="Livello_1" xmlns="http://www.w3.org/2000/svg" xmlns:xlink="http://www.w3.org/1999/xlink" x="0px" y="0px"
	 viewBox="0 0 194.9 74.1" style="enable-background:new 0 0 194.9 74.1;" xml:space="preserve">
<style type="text/css">
	.st0{fill:#B7AB98;}
</style>
<g>
	<path class="st0" d="M52.4,63.6l-7.7,7H23.2l-7.6-7V10.5l7.7-7.1h21.3l7.7,7.1V21H40.5v-5.2H27.6v42.3h12.9v-15h-8.1V30.8h20.1
		V63.6z"/>
	<path class="st0" d="M94.8,63.6l-7.8,7H65.8l-7.6-7V10.5l7.6-7.1H87l7.8,7.1v10.3H82.9v-5H70.1v42.3h12.8v-5.4h11.9V63.6z"/>
	<path class="st0" d="M130,3.5l7.7,7.1v53l-7.7,7.1h-29.4V3.5H130z M125.8,58.2V15.9h-13.2v42.3H125.8z"/>
	<path class="st0" d="M179.3,63.6l-7.6,7h-20.6l-7.7-7V52.8h11.9v5.4h12v-15h-16.3l-7.7-7.1V10.5l7.7-7.1h20.6l7.6,7v10.4h-11.9v-5
		h-12v15h16.4l7.6,7.1V63.6z"/>
</g>
</svg>
