<?xml version="1.0" encoding="utf-8"?>
<!-- Generator: Adobe Illustrator 27.0.1, SVG Export Plug-In . SVG Version: 6.00 Build 0)  -->
<svg version="1.1" id="Livello_1" xmlns="http://www.w3.org/2000/svg" xmlns:xlink="http://www.w3.org/1999/xlink" x="0px" y="0px"
	 viewBox="0 0 141.7 141.7" style="enable-background:new 0 0 141.7 141.7;" xml:space="preserve">
<style type="text/css">
	.st0{fill:#B7AB98;}
	.st1{fill:#0D0D0D;}
</style>
<circle class="st0" cx="70.9" cy="70.9" r="70.9"/>
<g>
	<path class="st1" d="M70.9,34.3c11.9,0,13.3,0,18,0.3c4.3,0.2,6.7,0.9,8.3,1.5c2.1,0.8,3.6,1.8,5.1,3.3s2.5,3,3.3,5.1
		c0.6,1.6,1.3,3.9,1.5,8.3c0.2,4.7,0.3,6.1,0.3,18s-0.1,13.3-0.3,18c-0.2,4.3-0.9,6.7-1.5,8.3c-0.8,2.1-1.8,3.6-3.3,5.1
		s-3.1,2.5-5.1,3.3c-1.6,0.6-3.9,1.3-8.3,1.5c-4.7,0.2-6.1,0.3-18,0.3s-13.3-0.1-18-0.3c-4.3-0.2-6.7-0.9-8.3-1.5
		c-2.1-0.8-3.6-1.8-5.1-3.3s-2.5-3.1-3.3-5.1c-0.6-1.6-1.3-3.9-1.5-8.3c-0.2-4.7-0.3-6.1-0.3-18s0-13.3,0.3-18
		c0.2-4.3,0.9-6.7,1.5-8.3c0.8-2.1,1.8-3.6,3.3-5.1s3-2.5,5.1-3.3c1.6-0.6,3.9-1.3,8.3-1.5C57.6,34.3,59,34.3,70.9,34.3 M70.9,26.3
		c-12.1,0-13.6,0-18.4,0.3c-4.8,0.2-8,1-10.8,2.1c-2.9,1.1-5.4,2.7-7.9,5.2s-4,5-5.1,7.9c-1.1,2.8-1.9,6.1-2.1,10.8
		c-0.2,4.8-0.3,6.3-0.3,18.4s0,13.6,0.3,18.4c0.2,4.8,1,8,2.1,10.8c1.1,2.9,2.7,5.4,5.1,7.9s5,4,7.9,5.2c2.8,1.1,6.1,1.9,10.8,2.1
		c4.8,0.2,6.3,0.3,18.4,0.3s13.6-0.1,18.4-0.3c4.8-0.2,8-1,10.8-2.1c2.9-1.1,5.4-2.7,7.9-5.2s4-5,5.2-7.9c1.1-2.8,1.9-6.1,2.1-10.8
		c0.2-4.8,0.3-6.3,0.3-18.4s-0.1-13.6-0.3-18.4c-0.2-4.8-1-8-2.1-10.8c-1.1-2.9-2.7-5.4-5.2-7.9s-5-4-7.9-5.2
		c-2.8-1.1-6.1-1.9-10.8-2.1C84.5,26.3,83,26.3,70.9,26.3L70.9,26.3z"/>
	<path class="st1" d="M70.9,48C58.2,48,48,58.2,48,70.9s10.3,22.9,22.9,22.9s22.9-10.3,22.9-22.9S83.5,48,70.9,48z M70.9,85.7
		C62.7,85.7,56,79,56,70.8S62.7,56,70.9,56s14.9,6.7,14.9,14.9S79.1,85.7,70.9,85.7z"/>
	<circle class="st1" cx="94.7" cy="47" r="5.3"/>
</g>
</svg>
