<?xml version="1.0" encoding="utf-8"?>
<!-- Generator: Adobe Illustrator 27.0.1, SVG Export Plug-In . SVG Version: 6.00 Build 0)  -->
<svg version="1.1" id="Livello_1" xmlns="http://www.w3.org/2000/svg" xmlns:xlink="http://www.w3.org/1999/xlink" x="0px" y="0px"
	 viewBox="0 0 141.7 141.7" style="enable-background:new 0 0 141.7 141.7;" xml:space="preserve">
<style type="text/css">
	.st0{fill:#B7AB98;}
	.st1{fill:#0D0D0D;}
</style>
<circle class="st0" cx="70.9" cy="70.9" r="70.9"/>
<g>
	<path class="st1" d="M76.3,61.2c1.2-1.3,2.1-2.6,3.3-3.8c3.7-3.5,8-5.2,13.1-5.2c2.8,0,5.6,0.2,8.2,1c6.2,1.8,9.7,6,11.4,12
		c1.3,4.5,1.5,9.1,1.5,13.8c0,9.8,0,19.6,0,29.4c0,0.9-0.2,1.2-1.2,1.2c-5,0-10.1,0-15.1,0c-0.9,0-1.1-0.3-1.1-1.1
		c0-9.3,0-18.6,0-27.9c0-2.3-0.2-4.7-0.8-6.9c-1.2-4.2-4.2-6.3-8.6-6.1c-6,0.3-9.1,3.3-9.8,9.4c-0.2,1.4-0.3,2.9-0.3,4.4
		c0,9.1,0,18.1,0,27.2c0,0.9-0.2,1.2-1.2,1.2c-5.1,0-10.2,0-15.2,0c-0.8,0-1-0.2-1-1c0-17.9,0-35.9,0-53.8c0-0.9,0.3-1.1,1.1-1.1
		c4.8,0,9.7,0,14.5,0c0.9,0,1.1,0.3,1.1,1.1C76.3,56.9,76.3,59.1,76.3,61.2L76.3,61.2z"/>
	<path class="st1" d="M48.7,81.7c0,8.9,0,17.8,0,26.6c0,1-0.2,1.3-1.3,1.3c-5-0.1-10.1,0-15.1,0c-0.8,0-1-0.2-1-1
		c0-18,0-35.9,0-53.9c0-0.7,0.2-1,1-1c5.1,0,10.2,0,15.3,0c1,0,1.1,0.4,1.1,1.2C48.7,63.8,48.7,72.8,48.7,81.7L48.7,81.7z"/>
	<path class="st1" d="M50.1,35.8C50.1,41.4,45.6,46,40,46c-5.5,0-10-4.5-10.1-10c0-5.6,4.5-10.1,10.1-10.1
		C45.6,25.8,50.1,30.4,50.1,35.8L50.1,35.8z"/>
</g>
</svg>
