<?xml version="1.0" encoding="utf-8"?>
<!-- Generator: Adobe Illustrator 27.0.1, SVG Export Plug-In . SVG Version: 6.00 Build 0)  -->
<svg version="1.1" id="Livello_1" xmlns="http://www.w3.org/2000/svg" xmlns:xlink="http://www.w3.org/1999/xlink" x="0px" y="0px"
	 viewBox="0 0 147.3 58.5" style="enable-background:new 0 0 147.3 58.5;" xml:space="preserve">
<style type="text/css">
	.st0{fill:#B7AB99;}
</style>
<path class="st0" d="M106.5,8.8c-6.3,0-9.3,4.8-9.3,12.7c0,4.5,0.6,9.2,3.8,11.5c-0.6-0.2-1.3-0.2-2-0.2c-3.2,0-5,1.9-5.7,3.3V9.3
	h-5.7v15.3c0,3.9-1.1,5.1-3.3,5.1c-2.1,0-2.6-1.4-2.6-3.8V9.3H76v17.8c0,4.1,1.4,6.1,3.4,6.9v24.1h5.7V34c1.1-0.5,2-1.3,2.6-2.6
	v26.7h5.7V42.7c0-3.8,1.3-5,3.5-5c2.3,0,2.8,1.5,2.8,4v16.4h5.7V40.4c0-3-0.8-5.1-2.3-6.3c1,0.3,2,0.5,3.3,0.5c8.2,0,8.8-7.2,8.9-8
	h-5.5c-0.1,0.8-0.5,3.3-3.3,3.3c-3.2,0-3.6-3.5-3.6-6.7h12.5c0-0.4,0.1-1.6,0.1-2.5C115.5,14.2,113.7,8.8,106.5,8.8z M103,19
	c0-1.8,0.2-5.5,3.5-5.5c3,0,3.3,3.1,3.3,5.5H103z"/>
<rect x="119.4" class="st0" width="5.7" height="34.1"/>
<path class="st0" d="M147.3,20.7c0-6.5-1.8-11.9-9-11.9c-6.3,0-9.3,4.8-9.3,12.7c0,6.3,1.1,13.1,9.2,13.1c8.2,0,8.8-7.2,8.9-8h-5.5
	c-0.1,0.8-0.5,3.3-3.3,3.3c-3.2,0-3.6-3.5-3.6-6.7h12.5C147.3,22.7,147.3,21.6,147.3,20.7z M134.8,19c0-1.8,0.2-5.5,3.5-5.5
	c3,0,3.3,3.1,3.3,5.5H134.8z"/>
<path class="st0" d="M9.6,37.5c2.6,0,2.7,2.8,2.7,3.8h5.8c0-1.2-0.2-6-4.5-7.8c2.4-1.2,3.7-3.5,3.7-6.7c0-4-2-6-7.2-8
	c-3-1.1-3.9-1.8-3.9-3.4c0-1.4,0.8-2.3,2.3-2.3c2.7,0,2.7,2.5,2.8,3.4h5.5c0-3.3-1.6-7.7-8.1-7.7c-5.9,0-8.1,3.8-8.1,7.1
	c0,3.6,1.4,5.7,7.3,7.8c2.9,1.1,3.7,2,3.7,3.8c0,1.6-0.9,2.6-2.8,2.6c-2.4,0-3.2-1.9-3.2-3.6H0C0,30,1.6,32.8,5,34
	c-3.4,2.1-4.6,6.6-4.6,11.5c0,7.4,1.8,13.1,8.9,13.1c8.2,0,8.7-6.8,8.7-8.8h-5.5c-0.1,1.4-0.3,4.1-3,4.1c-2.5,0-3.3-2.9-3.3-8.3
	C6.2,40.4,7.1,37.5,9.6,37.5z"/>
<path class="st0" d="M38.2,40c0-2.8-0.9-4.7-2.8-5.9h2c-0.1-1.1-0.2-4.2-0.2-5.4V16c0-4.7-2.8-7.2-8.1-7.2c-6.6,0-8.4,3.9-8.5,7.6
	H26c0.1-1.6,0.4-3.2,2.8-3.2c2.5,0,2.7,1.7,2.7,3.1V19c-0.6-0.1-1.2-0.1-2-0.1c-6.3,0-9.8,3.1-9.8,8.2c0,3,1.3,6.2,4.7,7.1
	c-2.1,1.5-2.8,3.8-2.9,6.1h5.4c0.1-1.6,0.4-3.2,2.8-3.2c2.5,0,2.7,1.7,2.7,3.1V43c-0.4,0-1.1,0-1.9,0c-6.3,0-9.8,3.1-9.8,8.2
	c0,3.6,1.8,7.4,6.6,7.4c3,0,4.7-1.2,5.6-2.7c0,0.7,0.1,1.8,0.2,2.3h5.2c-0.1-1.1-0.2-4.2-0.2-5.4L38.2,40L38.2,40z M29.9,23.1
	c0.8,0,1.3,0,1.9,0.1V24c0,3.7-0.5,5.9-3.5,5.9c-2.1,0-2.9-1.7-2.9-3.2C25.5,24.6,26.6,23.1,29.9,23.1z M31.2,32.9
	c0.3-0.3,0.6-0.7,0.8-1.1c0,0.3,0,0.8,0.1,1.2C31.8,32.9,31.5,32.9,31.2,32.9z M32.7,48c0,3.7-0.5,5.9-3.5,5.9
	c-2.1,0-2.9-1.7-2.9-3.2c0-2,1.2-3.5,4.5-3.5c0.8,0,1.3,0,1.9,0.1V48z"/>
<path class="st0" d="M76,37.6v-4.3h-5.1v-17c0-5.7-2.8-7.5-6.3-7.5c-3.3,0-5.1,1.6-6.1,3.4c-0.8-2.2-2.3-3.4-5-3.4
	c-2.5,0-4.3,1-5.5,3c0-0.8-0.1-2-0.2-2.5h-5.5c0,1.1,0,2.5,0,7.5v16.5H42v4.8h9C47.8,43.4,43.9,50,41.3,54v4.1h15.8l0.6-4.8H48
	c2.8-4.6,7.4-12.2,9.5-15.8V34h2.1V18.5c0-3.1,0.7-4.8,3.1-4.8c2,0,2.6,1.4,2.6,3.4v16.1h-4.8V38h9.1c-3.2,5.4-7.2,12-9.8,16v4.1
	h15.8l0.6-4.8h-9.7C69.3,48.7,73.9,41.2,76,37.6z M48.1,33.3V18.7c0-3.3,0.8-4.9,3.1-4.9c1.8,0,2.6,1.2,2.6,3.5v16
	C53.8,33.3,48.1,33.3,48.1,33.3z"/>
</svg>
