<?xml version="1.0" encoding="utf-8"?>
<!-- Generator: Adobe Illustrator 27.0.1, SVG Export Plug-In . SVG Version: 6.00 Build 0)  -->
<svg version="1.1" id="layer" xmlns="http://www.w3.org/2000/svg" xmlns:xlink="http://www.w3.org/1999/xlink" x="0px" y="0px"
	 viewBox="0 0 194.9 74.1" style="enable-background:new 0 0 194.9 74.1;" xml:space="preserve">
<style type="text/css">
	.st0{fill:#B7AB98;}
</style>
<path class="st0" d="M3.5,25.6L3.5,25.6L3.4,40.6H0V20.9h5.2l6.1,14.6l6.2-14.6h5.1v19.7h-3.4V25.6h0l-6.3,14.9H9.8L3.5,25.6
	L3.5,25.6z M37.5,20.8h4.4l9.6,19.7h-4l-2-4.5H34l-2.1,4.5h-4.1L37.5,20.8z M43.8,32.8l-4.1-8.8l-4.1,8.8H43.8z M56.7,20.8h11.8
	c4.6,0,8,1.1,8,5.9c0.1,3.1-2.3,5.7-5.4,5.8c0,0-0.1,0-0.1,0l6,8h-4.7l-5.7-7.8h-6.1v7.8h-3.8V20.8z M68,29.6c3.2,0,4.7-0.5,4.7-2.8
	c0-2.3-1.6-2.8-4.7-2.8h-7.4v5.6H68z M104.1,33.5c-0.4,2.2-1.9,7.5-11,7.5C86.9,41,82,37.5,82,30.4c0-5.8,3.6-10,11.4-10
	c8.8,0,10.1,5.7,10.4,6.8H100c-0.2-0.7-1.7-3.5-6.3-3.5c-5.5,0-7.7,3.1-7.7,7.1c0,4.5,3.3,6.9,7.5,6.9c4.5,0,6.5-2.7,6.9-4.2
	L104.1,33.5z M120.7,20.4c8.7,0,11.7,5.1,11.7,10.5c0,4.1-2.4,10.2-11.7,10.2S109,34.9,109,30.8C109,25.5,112,20.4,120.7,20.4z
	 M128.6,30.6c0-4.7-3.4-7-7.9-7c-4.5,0-7.9,2.2-7.9,7c0,5.6,4.2,7.1,7.9,7.1C124.4,37.7,128.6,36.2,128.6,30.6z M138.5,20.8h3.8
	v16.3h14.3v3.4h-18.1L138.5,20.8L138.5,20.8z M162.6,20.8h3.8v19.7h-3.8V20.8L162.6,20.8z M174,20.8h4.1l13.2,14.2V20.8h3.7v19.7
	h-3.5l-13.7-14.7v14.7H174L174,20.8L174,20.8z M67.1,53.7h6.6v-0.6h-6v-2.7H73V50h-5.3v-2.3h5.8v-0.6h-6.4L67.1,53.7L67.1,53.7z
	 M78.6,50.5L76,47.1h-0.8l3.1,4v2.7h0.6V51l3-4h-0.7L78.6,50.5z M83.7,53.7h6.6v-0.6h-6v-2.7h5.3V50h-5.3v-2.3H90v-0.6h-6.4
	L83.7,53.7L83.7,53.7z M91.7,47.1l2.2,6.6h0.7l1.8-5.3c0.1-0.3,0.1-0.4,0.2-0.7c0,0.2,0.1,0.5,0.2,0.6l1.9,5.3h0.8l2.1-6.6H101
	L99.5,52c-0.2,0.5-0.2,0.6-0.3,1.1c-0.1-0.4-0.2-0.6-0.3-0.8l-1.8-5.1h-0.7L95,51.3c-0.3,0.7-0.3,0.9-0.6,1.8
	c-0.1-0.3-0.2-0.6-0.2-0.7l-1.7-5.2L91.7,47.1z M103.4,53.7h6.6v-0.6H104v-2.7h5.3V50H104v-2.3h5.7v-0.6h-6.4L103.4,53.7L103.4,53.7
	z M114.7,47.1l-3.3,6.6h0.6l0.8-1.7h4.4l0.8,1.7h0.7l-3.3-6.6L114.7,47.1L114.7,47.1z M117,51.5h-3.8l1.9-3.8L117,51.5z M120.6,47.1
	v6.6h0.6v-2.9h3.1l2.6,3h0.9l-2.7-3c0.6,0,1.2-0.1,1.7-0.5c0.4-0.4,0.6-0.9,0.6-1.4c0-0.6-0.3-1.2-0.8-1.6c-0.5-0.2-1-0.3-1.5-0.3
	L120.6,47.1L120.6,47.1z M121.2,47.6h4c0.4,0,0.8,0.1,1.1,0.3c0.3,0.2,0.5,0.6,0.5,1c0,0.3-0.1,0.6-0.3,0.9
	c-0.5,0.4-1.1,0.5-1.7,0.4h-3.6L121.2,47.6L121.2,47.6z"/>
</svg>
