<?xml version="1.0" encoding="utf-8"?>
<!-- Generator: Adobe Illustrator 27.0.1, SVG Export Plug-In . SVG Version: 6.00 Build 0)  -->
<svg version="1.1" id="Livello_1" xmlns="http://www.w3.org/2000/svg" xmlns:xlink="http://www.w3.org/1999/xlink" x="0px" y="0px"
	 viewBox="0 0 194.9 74.1" style="enable-background:new 0 0 194.9 74.1;" xml:space="preserve">
<style type="text/css">
	.st0{fill:#B7AB98;}
</style>
<g>
	<path class="st0" d="M24.9,26.1c0.3-0.8,0.6-1.7,0.6-2.5v0h6.9v0.1c-1,0.3-1.2,1.4-1.2,2.4l2.6,19.6c0.2,1.9,0.4,2.9,2,4.1v0.1
		h-7.7v-0.1c1.4-0.4,1.7-1.6,1.7-3l-2.3-19.3l-9,22.9c-2-1.5-2.6-2.6-3.5-4.8l-7.6-18L5,44.7c-0.3,2.4-0.6,4.2,1.3,5v0.1h-6.6v-0.1
		c1.7-1.5,1.9-3.4,2.3-5.6l2.3-16.7c0.2-1.1,0.6-2.7-1.2-3.7v-0.1h7v0c0,0.6,0.3,1.2,0.6,1.8l7.5,17.6L24.9,26.1z"/>
	<path class="st0" d="M53.1,22.9c-8.4-0.2-15,6.1-15,13.7c0,8.2,6.7,13.9,14.6,13.9c8,0,14.7-5.9,14.7-14.1
		C67.4,29.3,61.5,22.9,53.1,22.9 M52.8,25.8c6.3,0,10,5.6,10,11.5c0,6-3.9,10.4-10,10.4c-6.3,0-10.2-5.8-10.2-11.4
		C42.6,30.3,46.6,25.8,52.8,25.8"/>
	<path class="st0" d="M76,44.7c0,2.2,0,3.8,2.1,5.1v0.1H71v-0.1c2.1-1.2,2.1-2.8,2.1-5.1V28.8c0-2.2,0-3.9-2.1-5.1v-0.1h5.9v0
		c0.2,0.5,0.3,0.7,0.6,1l0.6,0.8l14.7,18.4V28.8c0-2.2,0-3.9-2.1-5.1v-0.1h7.1v0.1c-2.1,1.2-2.1,2.8-2.1,5.1v22.4
		c-2.8-1-4.1-2.3-5.8-4.5L76,29.2L76,44.7L76,44.7z"/>
	<path class="st0" d="M122.1,28.6c-2.2-1.4-4.8-2.3-7.4-2.3c-5.5,0-9.4,4-9.4,9.8c0,5.9,4,11.1,10.2,11.1c3,0,6-1.1,8.5-2.5h0.1
		l-2,4.6c-1.9,0.9-4,1.2-6,1.2c-9.5,0-15.3-5.3-15.3-13.8c0-8.3,5.8-13.7,14.1-13.7c2.4,0,4.9,0.4,7.3,1L122.1,28.6L122.1,28.6z"/>
	<path class="st0" d="M138.3,47c2.7,0.2,5.1-0.8,7.1-2.4h0.1l-2.1,5.3H127v-0.1c2.1-0.7,1.8-3.7,1.8-5.5V29.2c0-1.8,0.3-4.8-1.8-5.5
		v-0.1h7.6v0.1c-2,0.8-1.8,3.7-1.8,5.5v17.4L138.3,47z"/>
	<path class="st0" d="M155,46.6l5.1,0.5c2.6,0.2,5.4-0.6,7.4-2.4h0.1l-1.8,5.2h-16.7v-0.1c2.1-0.7,1.8-3.7,1.8-5.5V29.3
		c0-1.8,0.2-4.7-1.8-5.5v-0.1H162c0.7,0,1.4,0.1,1.9-0.2h0.1v4.7h-0.1c-1.2-1.4-2.9-1.6-4.7-1.6c-1.4,0-2.8,0-4.1,0.3v7.4h4.8
		c0.7,0,1.3,0,1.8-0.2h0.1v4.2h-0.1c-0.6-1.2-2.3-1.1-3.6-1.1h-3L155,46.6L155,46.6z"/>
	<path class="st0" d="M180.7,23.6c5.4,0,8.3,2.8,8.3,6.4c0,3.5-3.1,6.3-6.4,7l5.8,7.2c1.7,2.1,4.2,4.1,6.5,5.6h-3.7
		c-2.1,0-3.4-0.5-4.6-2l-4.9-6l-3.7-5.6c3.2-0.5,7-2,7-5.7c0-2.9-2.5-4.5-5.2-4.4c-0.9,0-1.8,0.2-2.7,0.3v17.9
		c0,1.9-0.2,4.8,1.8,5.5v0.1h-7.6v-0.1c2-0.7,1.8-3.7,1.8-5.5V29.2c0-1.8,0.3-4.8-1.8-5.5v-0.1L180.7,23.6z"/>
</g>
</svg>
