<?xml version="1.0" encoding="utf-8"?>
<!-- Generator: Adobe Illustrator 27.0.1, SVG Export Plug-In . SVG Version: 6.00 Build 0)  -->
<svg version="1.1" id="Livello_1" xmlns="http://www.w3.org/2000/svg" xmlns:xlink="http://www.w3.org/1999/xlink" x="0px" y="0px"
	 viewBox="0 0 73.9 56.5" style="enable-background:new 0 0 73.9 56.5;" xml:space="preserve">
<style type="text/css">
	.st0{fill:#B7AB98;}
</style>
<path class="st0" d="M73.4,0.4C73.1,0.1,72.7,0,72.2,0C62.2,1.1,54.5,4.6,49.4,10.5c-5,5.9-7.6,14.2-7.6,24.8V55
	c0,0.8,0.7,1.5,1.5,1.5h28.6c0.8,0,1.5-0.7,1.5-1.5V27.8c0-0.8-0.7-1.5-1.5-1.5H58.5c0.1-3.5,1.2-6.2,3.3-8.4c2.3-2.4,6-4.2,11-5.6
	c0.7-0.2,1.1-0.8,1.1-1.5V1.5C73.9,1.1,73.7,0.7,73.4,0.4z M70.9,9.8c-5,1.4-8.8,3.5-11.3,6.1c-2.7,2.9-4.1,6.6-4.1,11.2v0.8
	c0,0.8,0.7,1.5,1.5,1.5h13.4v24.1H44.8V35.2c0-9.9,2.3-17.5,6.9-22.8c4.3-5,10.7-8.1,19.2-9.2V9.8z"/>
<path class="st0" d="M30.4,0C20.3,1.1,12.7,4.6,7.6,10.5C2.6,16.3,0,24.6,0,35.2V55c0,0.8,0.7,1.5,1.5,1.5h28.6
	c0.8,0,1.5-0.7,1.5-1.5V27.8c0-0.8-0.7-1.5-1.5-1.5H16.6c0.1-3.5,1.2-6.2,3.3-8.4c2.3-2.4,6-4.2,11-5.6c0.7-0.2,1.1-0.8,1.1-1.5V1.5
	c0-0.4-0.2-0.8-0.5-1.1C31.2,0.1,30.8,0,30.4,0z M29,9.8c-5,1.4-8.8,3.5-11.3,6.1c-2.8,2.9-4.2,6.6-4.2,11.2v0.8
	c0,0.8,0.7,1.5,1.5,1.5h13.5v24.1H3V35.2c0-9.9,2.3-17.5,6.9-22.8c4.3-5,10.7-8.1,19.2-9.2V9.8z"/>
</svg>
