<?xml version="1.0" encoding="utf-8"?>
<!-- Generator: Adobe Illustrator 27.0.1, SVG Export Plug-In . SVG Version: 6.00 Build 0)  -->
<svg version="1.1" id="Livello_1" xmlns="http://www.w3.org/2000/svg" xmlns:xlink="http://www.w3.org/1999/xlink" x="0px" y="0px"
	 viewBox="0 0 66.1 87.2" style="enable-background:new 0 0 66.1 87.2;" xml:space="preserve">
<style type="text/css">
	.st0{fill:#B7AB98;}
</style>
<g>
	<g>
		<path class="st0" d="M54.2,0h-43v12.1h3V3h37.9v10.6h11v56.2h-5.9v3h8.9V11.4L54.2,0z M55.1,5l5.8,5.5h-5.8V5z"/>
		<path class="st0" d="M0,14.5v72.7h54.9V25.9L43,14.5H0z M43.9,19.5l5.8,5.5h-5.8V19.5z M3,84.2V17.5h37.9v10.6h11v56.2L3,84.2
			L3,84.2z"/>
		<path class="st0" d="M32.9,30.2H7v14.9h25.9C32.9,45.1,32.9,30.2,32.9,30.2z M29.9,42.1H10v-8.9h19.9
			C29.9,33.2,29.9,42.1,29.9,42.1z"/>
		<rect x="8.5" y="52.3" class="st0" width="36" height="3"/>
		<rect x="8.5" y="60.7" class="st0" width="36" height="3"/>
	</g>
</g>
</svg>
