<?xml version="1.0" encoding="utf-8"?>
<!-- Generator: Adobe Illustrator 27.0.1, SVG Export Plug-In . SVG Version: 6.00 Build 0)  -->
<svg version="1.1" id="Livello_1" xmlns="http://www.w3.org/2000/svg" xmlns:xlink="http://www.w3.org/1999/xlink" x="0px" y="0px"
	 viewBox="0 0 579.1 144.2" style="enable-background:new 0 0 579.1 144.2;" xml:space="preserve">
<style type="text/css">
	.st0{fill:#B7AB98;}
</style>
<g id="a">
</g>
<g>
	<g>
		<path class="st0" d="M178.4,71.9c-2.6,0-5-0.4-7.4-1.1c-2.4-0.6-4.3-1.4-5.6-2.4l2.8-5.4c1.3,0.8,3,1.6,4.9,2.2
			c1.9,0.5,3.8,0.8,5.8,0.8c2.3,0,3.8-0.4,4.9-1c1.1-0.6,1.6-1.4,1.6-2.5c0-0.8-0.4-1.4-1.1-1.9s-1.6-0.7-2.8-1.1
			c-1.2-0.2-2.3-0.4-3.8-0.6c-1.3-0.2-2.8-0.4-4.1-0.7c-1.3-0.4-2.6-0.8-3.8-1.4c-1.2-0.6-2-1.4-2.8-2.6c-0.7-1.1-1.1-2.5-1.1-4.3
			c0-2,0.5-3.7,1.7-5.2c1.2-1.4,2.8-2.5,4.7-3.4c2-0.8,4.4-1.2,7.2-1.2c2.1,0,4.2,0.2,6.3,0.7c2.1,0.5,3.8,1.2,5.3,2l-2.8,5.4
			c-1.4-0.8-2.9-1.4-4.4-1.8c-1.4-0.4-2.9-0.5-4.4-0.5c-2.2,0-3.8,0.4-4.8,1c-1.1,0.6-1.6,1.4-1.6,2.5c0,1,0.4,1.6,1.1,2.1
			c0.7,0.4,1.6,0.8,2.8,1.1c1.2,0.4,2.3,0.5,3.8,0.6c1.3,0.2,2.8,0.4,4.1,0.7c1.3,0.4,2.6,0.8,3.8,1.3c1.2,0.5,2,1.4,2.8,2.5
			c0.7,1.1,1.1,2.5,1.1,4.2c0,1.9-0.5,3.6-1.7,5c-1.2,1.4-2.8,2.5-4.8,3.4C183.9,71.4,181.3,71.9,178.4,71.9L178.4,71.9z"/>
		<path class="st0" d="M195.6,46.7v-5.8h20.5v5.8H195.6z M211.4,71.9c-3.4,0-6-0.8-7.9-2.6c-1.9-1.8-2.8-4.3-2.8-7.8V33.9h7.2v27.4
			c0,1.4,0.4,2.6,1.2,3.4c0.7,0.8,1.8,1.3,3.1,1.3c1.6,0,2.9-0.4,4.1-1.3l2,5.2c-0.8,0.7-1.9,1.3-3.1,1.6
			C213.9,71.8,212.6,71.9,211.4,71.9L211.4,71.9z"/>
		<path class="st0" d="M234,71.9c-2.3,0-4.3-0.4-6.1-1.2s-3-1.9-4-3.2c-1-1.3-1.4-2.9-1.4-4.7c0-1.8,0.4-3.2,1.3-4.7
			c0.8-1.5,2.2-2.5,4.1-3.2c1.9-0.7,4.4-1.3,7.6-1.3h8.9v4.8H236c-2.5,0-4.1,0.4-4.9,1.2c-0.8,0.8-1.3,1.8-1.3,2.9
			c0,1.3,0.5,2.3,1.6,3.1c1.1,0.8,2.5,1.2,4.3,1.2s3.4-0.4,4.7-1.3c1.3-0.8,2.4-2,3-3.6l1.3,4.3c-0.7,1.8-1.9,3.2-3.8,4.2
			C239,71.4,236.7,71.9,234,71.9L234,71.9z M243.7,71.5v-6.3l-0.4-1.3V53c0-2.1-0.6-3.8-1.9-4.9c-1.3-1.2-3.2-1.8-5.8-1.8
			c-1.7,0-3.5,0.4-5.2,0.8c-1.7,0.5-3,1.3-4.3,2.2l-2.9-5.3c1.7-1.3,3.7-2.2,5.9-2.9c2.3-0.6,4.6-1,7.1-1c4.6,0,7.9,1.1,10.4,3.1
			c2.4,2.1,3.7,5.4,3.7,9.9v18.1L243.7,71.5L243.7,71.5z"/>
		<path class="st0" d="M258.2,71.9V41h7v8.5l-0.8-2.5c1-2.1,2.4-3.7,4.4-4.7c2-1.1,4.4-1.6,7.4-1.6v6.8c-0.4-0.1-0.6-0.1-0.8-0.1
			c-0.4,0-0.5,0-0.8,0c-2.8,0-4.9,0.8-6.5,2.4c-1.6,1.6-2.4,4-2.4,7.1V72L258.2,71.9L258.2,71.9z"/>
		<path class="st0" d="M282.1,46.7v-5.8h20.5v5.8H282.1L282.1,46.7z M297.8,71.9c-3.4,0-6-0.8-7.9-2.6c-1.9-1.8-2.8-4.3-2.8-7.8
			V33.9h7.2v27.4c0,1.4,0.4,2.6,1.2,3.4c0.7,0.8,1.8,1.3,3.1,1.3c1.6,0,2.9-0.4,4-1.3l2,5.2c-0.8,0.7-1.9,1.3-3.1,1.6
			C300.4,71.8,299.1,71.9,297.8,71.9L297.8,71.9z"/>
		<path class="st0" d="M310.4,71.9v-5l16.1-15.4c1.3-1.3,2.3-2.4,3-3.4c0.6-1,1.1-1.9,1.3-2.8c0.2-0.8,0.4-1.6,0.4-2.3
			c0-1.9-0.6-3.2-1.9-4.3s-3.1-1.6-5.5-1.6c-2,0-3.8,0.4-5.4,1.1c-1.6,0.7-2.9,1.8-4.1,3.1l-5.3-4.1c1.6-2.1,3.7-3.8,6.4-4.9
			c2.8-1.2,5.6-1.8,9-1.8c2.9,0,5.4,0.4,7.7,1.4c2.2,1,3.8,2.3,5,4c1.2,1.8,1.8,3.8,1.8,6.2c0,1.3-0.2,2.6-0.5,3.8
			c-0.4,1.3-1.1,2.6-2,4.1s-2.4,3-4.2,4.8l-14.1,13.2l-1.6-2.9h23.7v6.3L310.4,71.9L310.4,71.9z"/>
		<path class="st0" d="M351.4,36c-1.3,0-2.4-0.4-3.4-1.3c-0.8-0.8-1.3-1.9-1.3-3c0-1.2,0.4-2.3,1.3-3c0.8-0.7,2-1.3,3.4-1.3
			c1.4,0,2.4,0.4,3.4,1.2c0.8,0.8,1.3,1.8,1.3,2.9c0,1.3-0.4,2.3-1.3,3.2C353.9,35.5,352.8,36,351.4,36L351.4,36z M347.8,71.9V41
			h7.2v30.9L347.8,71.9L347.8,71.9z"/>
		<path class="st0" d="M401.7,40.7c2.5,0,4.6,0.5,6.5,1.4c1.9,0.9,3.4,2.4,4.6,4.4c1.1,2,1.6,4.6,1.6,7.7v17.7h-7.2V55.1
			c0-2.8-0.6-4.8-1.8-6.1c-1.2-1.3-2.9-2-5.2-2c-1.6,0-2.9,0.4-4.2,1.1c-1.3,0.7-2.2,1.7-2.9,3s-1.1,3-1.1,5.2v15.6h-7.2V55.1
			c0-2.8-0.6-4.8-1.8-6.1c-1.2-1.3-2.9-2-5.2-2c-1.6,0-2.9,0.4-4.2,1.1c-1.3,0.7-2.1,1.7-2.9,3c-0.6,1.3-1.1,3-1.1,5.2v15.6h-7.1V41
			h6.8v8.2l-1.3-2.4c1.1-2,2.5-3.6,4.6-4.6c2-1.1,4.2-1.6,6.8-1.6c2.9,0,5.4,0.7,7.6,2.1c2.2,1.3,3.6,3.6,4.2,6.5l-2.9-1
			c1.1-2.3,2.6-4.2,4.9-5.5C395.8,41.4,398.6,40.7,401.7,40.7L401.7,40.7z"/>
		<path class="st0" d="M421.9,83.1v-42h6.8v7.2l-0.2,8.2l0.5,8.2v18.4L421.9,83.1L421.9,83.1z M439.1,72.4c-2.5,0-4.8-0.5-6.8-1.8
			c-2.1-1.2-3.7-2.9-4.9-5.3c-1.3-2.3-1.8-5.3-1.8-8.9s0.6-6.6,1.8-8.9c1.2-2.3,2.8-4,4.8-5.2c2-1.2,4.4-1.7,7.1-1.7
			c3,0,5.8,0.6,8.1,2c2.3,1.3,4.2,3.1,5.5,5.4c1.3,2.3,2.1,5.2,2.1,8.3c0,3.1-0.6,6-2.1,8.4c-1.3,2.4-3.2,4.2-5.5,5.5
			C444.9,71.8,442.1,72.2,439.1,72.4L439.1,72.4z M438.2,66.1c1.7,0,3.2-0.4,4.6-1.2c1.3-0.7,2.4-1.9,3.2-3.4
			c0.8-1.4,1.3-3.1,1.3-5.2s-0.4-3.7-1.3-5.2c-0.8-1.4-1.9-2.5-3.2-3.4c-1.3-0.8-2.9-1.2-4.6-1.2s-3.2,0.4-4.7,1.2
			c-1.3,0.7-2.5,1.9-3.2,3.4c-0.8,1.4-1.3,3.1-1.3,5.2s0.4,3.7,1.3,5.2c0.8,1.5,1.9,2.6,3.2,3.4C434.9,65.8,436.5,66.1,438.2,66.1z"
			/>
		<path class="st0" d="M471,71.9c-2.3,0-4.3-0.4-6.1-1.2c-1.8-0.7-3-1.9-4-3.2c-1-1.3-1.4-2.9-1.4-4.7c0-1.8,0.4-3.2,1.3-4.7
			c0.8-1.3,2.2-2.5,4.1-3.2c1.9-0.8,4.4-1.3,7.6-1.3h8.9v4.8h-8.4c-2.5,0-4.1,0.4-4.9,1.2c-0.8,0.8-1.3,1.8-1.3,2.9
			c0,1.3,0.5,2.3,1.6,3.1c1.1,0.8,2.5,1.2,4.3,1.2c1.8,0,3.4-0.4,4.7-1.3c1.3-0.8,2.4-2,3-3.6l1.3,4.3c-0.7,1.8-1.9,3.2-3.7,4.2
			C475.9,71.4,473.7,71.9,471,71.9L471,71.9z M480.6,71.5v-6.3l-0.4-1.3V53c0-2.1-0.6-3.8-1.9-4.9c-1.3-1.2-3.1-1.8-5.8-1.8
			c-1.7,0-3.5,0.4-5.2,0.8c-1.7,0.5-3.1,1.3-4.2,2.2l-2.9-5.3c1.7-1.3,3.7-2.2,5.9-2.9c2.2-0.6,4.7-1,7.1-1c4.6,0,7.9,1.1,10.4,3.1
			c2.4,2.1,3.7,5.4,3.7,9.9v18.1L480.6,71.5L480.6,71.5z"/>
		<path class="st0" d="M508.8,71.9c-3.2,0-6.1-0.7-8.6-2.1c-2.5-1.4-4.6-3.2-5.9-5.6c-1.4-2.4-2.1-5.2-2.1-8.2s0.7-5.8,2.1-8.2
			c1.4-2.4,3.4-4.2,5.9-5.5c2.5-1.3,5.4-2,8.6-2c3,0,5.6,0.6,7.9,1.8c2.3,1.3,4,3,5.3,5.4l-5.5,3.2c-1-1.4-2.1-2.5-3.4-3.2
			c-1.3-0.7-2.8-1.1-4.3-1.1c-1.8,0-3.4,0.4-4.8,1.2c-1.4,0.7-2.5,1.9-3.4,3.4c-0.8,1.4-1.3,3.1-1.3,5.2c0,2,0.4,3.7,1.3,5.2
			s1.9,2.5,3.4,3.4c1.4,0.7,3,1.2,4.8,1.2c1.6,0,2.9-0.4,4.3-1.1c1.3-0.7,2.4-1.8,3.4-3.2l5.5,3.2c-1.2,2.3-2.9,4.1-5.3,5.4
			C514.5,71.3,511.9,71.9,508.8,71.9z"/>
		<path class="st0" d="M525.4,46.7v-5.8h20.5v5.8H525.4z M541.1,71.9c-3.4,0-6-0.8-7.9-2.6c-1.9-1.8-2.8-4.3-2.8-7.8V33.9h7.2v27.4
			c0,1.4,0.4,2.6,1.2,3.4c0.7,0.8,1.8,1.3,3.1,1.3c1.6,0,2.9-0.4,4.1-1.3l2,5.2c-0.8,0.7-1.9,1.3-3.1,1.6
			C543.7,71.8,542.3,71.9,541.1,71.9L541.1,71.9z"/>
	</g>
	<g>
		<path class="st0" d="M174.8,109.9c-2.5,0-4.6-0.7-6.1-2.2c-1.4-1.4-2.2-3.5-2.2-6.1V91.5h4.2v10c0,1.8,0.4,2.9,1.1,3.8
			c0.7,0.7,1.7,1.2,2.9,1.2c1.3,0,2.3-0.4,2.9-1.2c0.7-0.7,1.1-2,1.1-3.8v-10h4.1v10.2c0,2.6-0.7,4.7-2.2,6.1
			S177.4,109.9,174.8,109.9L174.8,109.9z"/>
		<path class="st0" d="M211.4,109.9V91.8h3.5l10.7,13H224v-13h4.1v18.1h-3.5l-10.7-13h1.7v13L211.4,109.9L211.4,109.9z"/>
		<path class="st0" d="M256.7,109.9V91.8h4.2v18.1C260.9,109.9,256.7,109.9,256.7,109.9z"/>
		<path class="st0" d="M294.8,109.9l-7.9-18.1h4.6l6.8,16.1h-2.6l7-16.1h4.2l-7.9,18.1L294.8,109.9L294.8,109.9z"/>
		<path class="st0" d="M336.8,106.6h9.9v3.4h-14.1V91.8h13.8v3.4h-9.6V106.6z M336.5,99.1h8.8v3.2h-8.8V99.1z"/>
		<path class="st0" d="M374.2,109.9V91.8h7.9c1.6,0,3,0.2,4.2,0.8c1.2,0.6,2.1,1.3,2.8,2.3c0.6,1.1,1,2.2,1,3.6c0,1.3-0.4,2.5-1,3.5
			c-0.6,1-1.6,1.7-2.8,2.2c-1.2,0.5-2.6,0.7-4.2,0.7h-5.5l1.9-1.9v7L374.2,109.9L374.2,109.9z M378.4,103.6l-1.9-2.1h5.3
			c1.3,0,2.3-0.4,2.9-0.8c0.6-0.5,1-1.3,1-2.3s-0.4-1.8-1-2.3c-0.6-0.5-1.6-0.8-2.9-0.8h-5.3l1.9-2V103.6L378.4,103.6z M385.9,109.9
			l-4.6-6.6h4.6l4.6,6.6H385.9L385.9,109.9z"/>
		<path class="st0" d="M423.6,109.9c-1.4,0-2.9-0.2-4.2-0.6c-1.3-0.4-2.4-0.8-3.2-1.4l1.4-3.1c0.7,0.5,1.7,1.1,2.8,1.3
			c1.1,0.4,2.1,0.5,3.2,0.5c0.8,0,1.4-0.1,2-0.2c0.5-0.2,0.8-0.4,1.2-0.7c0.4-0.4,0.4-0.6,0.4-1.1c0-0.5-0.2-0.8-0.5-1.2
			c-0.4-0.4-0.8-0.5-1.4-0.7c-0.6-0.2-1.3-0.4-2.1-0.5c-0.7-0.2-1.4-0.4-2.2-0.6c-0.7-0.4-1.4-0.5-2.1-1c-0.6-0.4-1.2-0.8-1.4-1.4
			c-0.4-0.6-0.6-1.3-0.6-2.4s0.4-2,0.8-2.9c0.5-0.8,1.3-1.6,2.5-2c1.2-0.4,2.5-0.7,4.3-0.7c1.2,0,2.3,0.1,3.4,0.4
			c1.1,0.4,2.1,0.6,2.9,1.3l-1.3,3.1c-0.8-0.5-1.7-0.8-2.5-1.1c-0.8-0.2-1.7-0.4-2.5-0.4c-0.8,0-1.4,0.1-2,0.4
			c-0.5,0.2-1,0.4-1.2,0.7c-0.2,0.4-0.4,0.6-0.4,1.1c0,0.4,0.2,0.8,0.5,1.2c0.4,0.4,0.8,0.5,1.4,0.7c0.6,0.2,1.3,0.4,2.1,0.5
			c0.7,0.2,1.4,0.4,2.2,0.6c0.7,0.2,1.4,0.5,2.1,1c0.6,0.4,1.2,0.8,1.4,1.4c0.4,0.6,0.6,1.3,0.6,2.3c0,1.1-0.4,2-0.8,2.9
			c-0.5,0.8-1.4,1.6-2.5,2C427,109.7,425.3,109.9,423.6,109.9L423.6,109.9z"/>
		<path class="st0" d="M458.4,109.9V91.8h4.2v18.1C462.6,109.9,458.4,109.9,458.4,109.9z"/>
		<path class="st0" d="M495,109.9V95.3h-5.8v-3.5h15.9v3.5h-5.9V110L495,109.9L495,109.9z"/>
		<path class="st0" d="M535.6,109.9v-7.4l1,2.5l-7.9-13.2h4.4l6.1,10.2h-2.5l6.2-10.2h4.1l-7.9,13.3l1-2.5v7.4L535.6,109.9
			L535.6,109.9L535.6,109.9z"/>
	</g>
	<path class="st0" d="M80.4,92.5c-0.2-0.5-0.4-1.2-0.5-1.7C75.5,94.6,69.7,97,63.6,97c-0.1,0-0.1,0-0.2,0c-1.4,0-2.9-0.2-4.3-0.4
		c-11.6-2.1-20.5-12.4-20.5-24.6c0-8.6,4.6-16.5,11.4-21c0-0.1,0-0.4,0-0.4c0-2.9,0.4-5.8,1.1-8.5c-12,5-20.1,16.9-20.1,30
		s7.8,24.4,19,29.5c0.6,0.4,1.3,0.5,1.9,0.8c0.6,0.2,1.3,0.5,1.9,0.7c2.6,0.8,5.4,1.3,8.4,1.4c0.4,0,0.8,0.1,1.3,0.1
		c0.1,0,0.4,0,0.5,0c0.6,0,1.2,0,1.8-0.1c7.1-0.5,13.8-3.4,19-7.9C82.8,96.1,81.1,94.6,80.4,92.5L80.4,92.5z"/>
	<path class="st0" d="M110,94.2v0.2c0,1.4-0.2,2.9-0.4,4.3c-2.1,11.6-12.4,20.5-24.6,20.5c-8.6,0-16.5-4.6-21-11.4
		c-0.2,0-0.4,0-0.4,0c-2.9,0-5.8-0.4-8.5-1.1c5,11.9,16.8,19.9,30,19.9s24.4-7.8,29.5-19c0.4-0.6,0.5-1.3,0.8-1.9
		c0.2-0.6,0.5-1.3,0.6-1.9c0.8-2.6,1.3-5.4,1.4-8.4c0-0.4,0.1-0.8,0.1-1.3c0-0.2,0-0.4,0-0.5c0-0.6,0-1.2-0.1-1.8
		c-0.8-11.3-7.3-21.1-17-26.3l-2.5,7.1C105.2,77.2,110,85.2,110,94.2L110,94.2z"/>
	<path class="st0" d="M120.6,43.2c-0.6-0.4-1.3-0.5-1.9-0.8c-0.6-0.2-1.3-0.5-1.9-0.6c-2.8-0.8-5.4-1.3-8.4-1.4
		c-0.4,0-0.8-0.1-1.3-0.1c-0.2,0-0.4,0-0.5,0c-0.6,0-1.2,0-1.8,0.1c-13.1,1-24.5,10-28.6,22.5l9.7-3.4c4.6-7.1,12.4-11.6,21.1-11.6
		h0.2c1.4,0,2.9,0.2,4.3,0.4c11.6,2.1,20.5,12.4,20.5,24.6c0,8.6-4.6,16.5-11.4,21c0,0.2,0,0.4,0,0.5c0,2.9-0.4,5.8-1.1,8.5
		c11.9-4.9,19.9-16.8,19.9-29.9S131.9,48.3,120.6,43.2L120.6,43.2z"/>
	<path class="st0" d="M64.6,66.7l1.4-0.5c-3.5-4.3-5.5-9.7-5.5-15.6v-0.2c0-1.4,0.2-2.9,0.4-4.3c2.1-11.6,12.4-20.5,24.6-20.5
		c8.6,0,16.5,4.6,21,11.4c0.1,0,0.4,0,0.4,0c2.9,0,5.8,0.4,8.5,1.1c-4.8-11.9-16.7-19.9-29.8-19.9s-24.4,7.8-29.5,19
		c-0.4,0.6-0.5,1.3-0.8,1.9c-0.2,0.6-0.5,1.3-0.7,1.9c-0.8,2.8-1.3,5.4-1.4,8.4c0,0.4,0,0.8,0,1.3c0,0.2,0,0.4,0,0.5
		c0,0.6,0,1.2,0.1,1.8c0.5,7.1,3.4,13.7,7.8,18.9C61.1,69.4,62.6,67.4,64.6,66.7L64.6,66.7z"/>
	<path class="st0" d="M77.1,80.4c3.2,3.2,5.4,7.1,6.5,11.3c0.5,2.1,3.5,2.2,4.2,0.1L98,62.3c0.6-1.8-1.1-3.4-2.9-2.9L65.8,69.7
		c-2.1,0.7-2,3.7,0.1,4.2C70,75.1,73.9,77.2,77.1,80.4z"/>
</g>
</svg>
