<?xml version="1.0" encoding="utf-8"?>
<!-- Generator: Adobe Illustrator 27.0.1, SVG Export Plug-In . SVG Version: 6.00 Build 0)  -->
<svg version="1.1" id="Livello_1" xmlns="http://www.w3.org/2000/svg" xmlns:xlink="http://www.w3.org/1999/xlink" x="0px" y="0px"
	 viewBox="0 0 141.7 141.7" style="enable-background:new 0 0 141.7 141.7;" xml:space="preserve">
<style type="text/css">
	.st0{fill:#B7AB98;}
	.st1{fill:#242424;}
	.st2{fill:#0D0D0D;}
	.st3{fill:#2E2E2E;}
</style>
<circle class="st0" cx="70.9" cy="70.9" r="70.9"/>
<path class="st1" d="M48,76.1l8.4,23.3c0,0,1,2.2,2.2,2.2s17.9-17.4,17.9-17.4l18.6-36L48.3,70L48,76.1L48,76.1z"/>
<path class="st2" d="M59.1,82l-1.6,17.2c0,0-0.7,5.2,4.6,0c5.2-5.2,10.3-9.3,10.3-9.3S59.1,82,59.1,82z"/>
<path class="st3" d="M48.1,76.9l-17.3-5.6c0,0-2.1-0.8-1.4-2.7c0.1-0.4,0.4-0.7,1.2-1.3c3.8-2.7,70.9-26.8,70.9-26.8s1.9-0.6,3-0.2
	c0.5,0.2,0.8,0.4,1.1,1.2c0.1,0.3,0.2,0.9,0.2,1.5c0,0.4-0.1,0.9-0.1,1.5c-0.4,6.6-12.6,55.8-12.6,55.8s-0.7,2.9-3.3,3
	c-1,0-2.1-0.2-3.5-1.3c-5.1-4.4-22.9-16.4-26.8-19c-0.2-0.2-0.3-0.3-0.3-0.5c-0.1-0.3,0.2-0.6,0.2-0.6s31-27.5,31.8-30.4
	c0.1-0.2-0.2-0.3-0.5-0.2C88.6,51.8,52.9,74.4,49,76.8C48.8,77,48.1,76.9,48.1,76.9z"/>
</svg>
