<?xml version="1.0" encoding="utf-8"?>
<!-- Generator: Adobe Illustrator 27.0.1, SVG Export Plug-In . SVG Version: 6.00 Build 0)  -->
<svg version="1.1" id="layer" xmlns="http://www.w3.org/2000/svg" xmlns:xlink="http://www.w3.org/1999/xlink" x="0px" y="0px"
	 viewBox="0 0 194.9 74.1" style="enable-background:new 0 0 194.9 74.1;" xml:space="preserve">
<style type="text/css">
	.st0{fill:#B7AB98;}
</style>
<path class="st0" d="M156.8,24c-2.3,0-4.2,1.9-4.2,4.2s1.9,4.2,4.2,4.2c2.3,0,4.2-1.9,4.2-4.2S159.1,24,156.8,24z M156.9,31.5
	c-1.9,0-3.4-1.5-3.4-3.4c0-1.9,1.5-3.4,3.4-3.4c0,0,0.1,0,0.1,0c1.9,0,3.4,1.6,3.4,3.4C160.2,30,158.7,31.5,156.9,31.5z"/>
<path class="st0" d="M149.3,43c-1.1-1.1-6-5.9-6-5.9s4.6-4.4,6.1-6c1.5-1.8,1.2-4.5-0.5-6c-1.8-1.5-4.4-1.4-6.1,0.2
	c-0.9,1-5.8,5.7-5.8,5.7s-4.8-4.8-6-5.8c-1.8-1.5-4.4-1.3-6.1,0.3c0,0-0.1,0.1-0.1,0.1c-1.6,1.6-1.5,4.2,0.1,5.8l5.9,5.8
	c0,0-4.6,4.6-6,6c0,0-0.1,0.1-0.1,0.1c-1.5,1.7-1.3,4.3,0.4,5.8c1.7,1.6,4.3,1.7,6.1,0.1l5.9-5.9c0,0,4.6,4.5,5.6,5.6
	c1.7,1.7,4.5,1.8,6.3,0.2l0.1-0.1C150.8,47.3,150.9,44.6,149.3,43z M147.3,47.2c-0.7,0.7-1.8,0.7-2.6,0.1l-7.7-7.5l-7.5,7.4
	c-0.7,0.7-1.9,0.7-2.6,0c-0.7-0.6-0.8-1.7-0.2-2.4l7.8-7.7l-7.9-7.7c-0.6-0.7-0.5-1.7,0.1-2.3c0.7-0.7,1.9-0.8,2.7-0.2l7.6,7.5
	l7.7-7.5c0.7-0.6,1.9-0.6,2.6,0c0.7,0.7,0.8,1.8,0.2,2.5l-7.7,7.6l7.7,7.7C148,45.5,147.9,46.5,147.3,47.2z"/>
<path class="st0" d="M90.1,24.9c-0.7-0.7-1.7-1.1-2.7-1c-1-0.1-1.9,0.3-2.6,1c-0.6,0.9-0.9,2-0.9,3.1v12L71.3,25.8
	c-0.5-0.6-1.1-1.1-1.8-1.4c-0.6-0.3-1.3-0.4-1.9-0.4c-0.9-0.1-1.8,0.3-2.4,0.9c-0.6,0.9-0.9,1.9-0.8,2.9v18.1
	c-0.1,1.1,0.2,2.3,0.8,3.2c0.7,0.7,1.7,1,2.7,0.9c1,0.1,1.9-0.3,2.6-1c0.7-0.9,1-2.1,0.9-3.2V34.1l12.4,14c0.6,0.6,1.3,1.1,2,1.5
	c0.6,0.3,1.3,0.5,2,0.4c0.9,0.1,1.8-0.2,2.4-0.8c0.6-0.8,0.9-1.7,0.8-2.7L91,28C91.1,26.9,90.8,25.8,90.1,24.9z"/>
<path class="st0" d="M61.3,28c0.1-1.1-0.2-2.2-0.9-3.1c-1.5-1.3-3.8-1.3-5.3,0c-0.6,0.9-0.9,2-0.8,3.1v10c0.1,1.8-0.4,3.6-1.6,5
	c-2.7,2.2-6.6,2.2-9.4,0c-1.1-1.4-1.7-3.2-1.6-5V28c0.1-1.1-0.2-2.2-0.9-3.1c-1.5-1.3-3.8-1.3-5.4,0c-0.6,0.9-0.9,2-0.9,3.1v10.6
	c-0.2,3.2,1.1,6.4,3.6,8.5c2.8,2.2,6.3,3.2,9.8,3c3.5,0.2,7-0.9,9.8-3c2.4-2.1,3.7-5.3,3.5-8.5L61.3,28z"/>
<path class="st0" d="M97.5,0c-47.3,0-84,16.6-84,37s36.6,37,84,37s84-16.6,84-37S144.8,0,97.5,0z M97.5,69.1
	c-39.1,0-71.9-15.5-71.9-32S58.4,5,97.5,5s71.9,15.5,71.9,32S136.5,69.1,97.5,69.1z"/>
<path class="st0" d="M157.9,28.8c-0.1-0.1-0.2-0.3-0.3-0.4l-0.3-0.1c0.3,0,0.5-0.1,0.7-0.3c0.2-0.2,0.2-0.4,0.2-0.6
	c0-0.2-0.1-0.3-0.1-0.5c-0.1-0.1-0.2-0.2-0.3-0.3c-0.2-0.1-0.4-0.1-0.6-0.1h-1.4v3.2h0.4v-1.4h0.7l0.2,0.1l0.2,0.2c0,0,0,0.1,0,0.1
	l0.1,0.2l0.1,0.2l0.4,0.7l0.6-0.1L157.9,28.8z M156.9,28h-0.9v-1h1c0.2,0,0.4,0,0.5,0.1c0.1,0.1,0.1,0.2,0.1,0.3l-0.1,0.3l-0.2,0.2
	C157.3,28,157.1,28,156.9,28z"/>
<path class="st0" d="M118.7,27.7c-2.4-2.4-6.7-3.6-10.6-3.6c-3.9,0-8.2,1.2-10.6,3.6c-4.8,5.4-4.8,13.6,0,19
	c2.4,2.4,6.7,3.6,10.6,3.6c3.9,0,8.2-1.2,10.6-3.6C123.6,41.2,123.6,33,118.7,27.7z M113.3,42.7c-1.4,1.4-3.3,2.1-5.2,2.1
	c-1.9,0.1-3.8-0.7-5.2-2.1c-1.3-1.6-1.9-3.6-1.9-5.6c-0.1-2.1,0.6-4.1,1.9-5.7c1.4-1.4,3.3-2.2,5.2-2.1c2,0,3.9,0.8,5.2,2.2
	c1.3,1.6,1.9,3.7,1.9,5.7C115.2,39.2,114.6,41.2,113.3,42.7z"/>
</svg>
